# xmcd CD database file
#
# Track frame offsets:
#	150
#	1162
#	50175
#	51620
#	75637
#	77182
#	97632
#	99070
#	124035
#	125915
#	156502
#	158027
#	178692
#	180652
#	197792
#	199459
#	222095
#
# Disc length: 2980 seconds
#
# Revision: 0
# Processed by: cddbd v1.5.2PL0 Copyright (c) Steve Scherf et al.
# Submitted via: CDex 1.70beta2
#
DISCID=e90ba211
DTITLE=Scott Fields - Disaster At Sea
DYEAR=1996
DGENRE=Jazz
TTITLE0=Overture
TTITLE1=Sputter
TTITLE2=Entr'acte
TTITLE3=Too Drunk To Swim
TTITLE4=Entr'acte (2)
TTITLE5=The Salvagers
TTITLE6=Entr'acte (3)
TTITLE7=Debris On The Surface
TTITLE8=Entr'acte (4)
TTITLE9=Man Floating
TTITLE10=Entr'acte (5)
TTITLE11=Failes Crossing
TTITLE12=Entr'acte (6)
TTITLE13=Overloaded Fishing Boat
TTITLE14=Entr'acte (7)
TTITLE15=Old Time South Street Dance
TTITLE16=Afterture
EXTD=YEAR: 1996
EXTT0=
EXTT1=
EXTT2=
EXTT3=
EXTT4=
EXTT5=
EXTT6=
EXTT7=
EXTT8=
EXTT9=
EXTT10=
EXTT11=
EXTT12=
EXTT13=
EXTT14=
EXTT15=
EXTT16=
PLAYORDER=
